<svg width="585" height="487" viewBox="0 0 585 487" fill="none" xmlns="http://www.w3.org/2000/svg">
<path d="M479.46 432.489C479.46 432.489 538.062 426.951 541.9 362.303C545.737 297.656 437.431 217.755 419.845 185.717C402.258 153.68 374.4 57.7096 295.183 54.58C215.967 51.4504 162.203 54.7968 139.548 130.076C116.893 205.362 90.0324 249.973 64.1299 278.842C38.2274 307.708 23.8368 407.924 86.1951 432.751L479.46 432.489Z" fill="#739CA2"/>
<path d="M304.49 76.7398H380.938V112.069V115.001V132.581L359.06 115.001H304.49V76.7398Z" fill="#FBD5B5"/>
<path d="M381.423 133.594L358.888 115.486H304.004V76.2544H381.423V133.594ZM304.975 114.515H359.228L359.361 114.622L380.448 131.568V77.2285H304.975V114.515Z" fill="#1B2746"/>
<path d="M370.747 86.3876H316.377C316.109 86.3876 315.892 86.1707 315.892 85.9021C315.892 85.6335 316.109 85.4167 316.377 85.4167H370.747C371.016 85.4167 371.233 85.6335 371.233 85.9021C371.233 86.1707 371.016 86.3876 370.747 86.3876Z" fill="#0E2549"/>
<path d="M370.747 94.8736H335.039C334.77 94.8736 334.553 94.6567 334.553 94.3881C334.553 94.1195 334.77 93.9026 335.039 93.9026H370.747C371.016 93.9026 371.233 94.1195 371.233 94.3881C371.233 94.6567 371.016 94.8736 370.747 94.8736Z" fill="#0E2549"/>
<path d="M252.789 43.4855H184.048V75.9243V78.6137V94.7571L203.72 78.6137H252.789V43.4855Z" fill="#FBD5B5"/>
<path d="M183.562 95.783V43H253.271V79.0992H203.895L183.562 95.783ZM184.533 43.9709V93.7311L203.545 78.1315H252.3V43.9709H184.533Z" fill="#1B2746"/>
<path d="M242.099 52.3824H194.138C193.869 52.3824 193.652 52.1656 193.652 51.897C193.652 51.6283 193.869 51.4115 194.138 51.4115H242.099C242.368 51.4115 242.585 51.6283 242.585 51.897C242.585 52.1656 242.368 52.3824 242.099 52.3824Z" fill="#0E2549"/>
<path d="M242.099 60.1758H194.138C193.869 60.1758 193.652 59.959 193.652 59.6903C193.652 59.4217 193.869 59.2049 194.138 59.2049H242.099C242.368 59.2049 242.585 59.4217 242.585 59.6903C242.585 59.959 242.368 60.1758 242.099 60.1758Z" fill="#0E2549"/>
<path d="M216.255 67.9691H194.138C193.869 67.9691 193.652 67.7522 193.652 67.4836C193.652 67.215 193.869 66.9981 194.138 66.9981H216.255C216.524 66.9981 216.741 67.215 216.741 67.4836C216.741 67.749 216.524 67.9691 216.255 67.9691Z" fill="#0E2549"/>
<path d="M135.639 278.842L407.42 278.318C408.919 278.318 410.143 276.57 410.143 274.434V273.981C410.143 271.845 408.916 270.097 407.42 270.097L135.639 270.622C134.14 270.622 132.916 272.369 132.916 274.505V274.958C132.916 277.095 134.14 278.842 135.639 278.842Z" fill="#EBF4FE"/>
<path d="M135.643 279.328C133.872 279.328 132.431 277.366 132.431 274.958V274.505C132.431 272.094 133.872 270.136 135.64 270.136L407.42 269.612C409.191 269.612 410.632 271.573 410.632 273.981V274.434C410.632 276.842 409.191 278.803 407.423 278.803L135.643 279.328ZM407.42 270.583L135.64 271.107C134.425 271.107 133.399 272.664 133.399 274.505V274.958C133.399 276.8 134.425 278.357 135.636 278.357L407.417 277.832C408.631 277.832 409.658 276.276 409.658 274.434V273.981C409.661 272.14 408.634 270.583 407.42 270.583Z" fill="#0E2549"/>
<path d="M419.485 432.515H427.71L389.788 278.379H381.562L419.485 432.515Z" fill="#EBF4FE"/>
<path d="M428.296 432.971H419.129L419.045 432.625L380.983 277.926H390.15L390.235 278.273L428.296 432.971ZM419.845 432.058H427.131L389.431 278.839H382.145L419.845 432.058Z" fill="#0E2549"/>
<path d="M136.659 432.515H128.431L151.115 278.842H159.343L136.659 432.515Z" fill="#EBF4FE"/>
<path d="M137.077 433H127.868L150.694 278.357H159.903L137.077 433ZM128.995 432.029H136.238L158.78 279.328H151.536L128.995 432.029Z" fill="#0E2549"/>
<path d="M231.928 262.424H262.011L255.596 232.008H225.516L231.928 262.424Z" fill="#F9E5EF"/>
<path d="M262.607 262.909H231.533L224.917 231.526H255.994L262.607 262.909ZM232.32 261.938H261.408L255.204 232.493H226.115L232.32 261.938Z" fill="#1B2746"/>
<path d="M245.93 210.052L245.976 211.259L250.441 211.094L250.392 209.88L245.93 210.052Z" fill="white"/>
<path d="M171.059 239.231H314.778C319.632 239.231 323.566 235.299 323.566 230.448L300.672 130.934C299.989 125.591 296.738 122.15 291.884 122.15H148.165C143.311 122.15 139.376 126.082 139.376 130.934L162.271 230.448C163.414 235.325 166.205 239.231 171.059 239.231Z" fill="#FE893A"/>
<path d="M314.781 239.717H171.059C166.539 239.717 163.161 236.38 161.798 230.558L138.891 130.989V130.934C138.891 125.824 143.052 121.665 148.165 121.665H291.883C296.867 121.665 300.416 125.183 301.151 130.85L324.052 230.396V230.451C324.055 235.561 319.894 239.717 314.781 239.717ZM139.862 130.879L162.743 230.338C163.478 233.477 165.538 238.746 171.059 238.746H314.781C319.34 238.746 323.054 235.053 323.084 230.503L300.196 131.018L300.193 130.995C299.522 125.762 296.417 122.636 291.887 122.636H148.165C143.605 122.636 139.891 126.328 139.862 130.879Z" fill="#0E2549"/>
<path d="M170.629 224.208H313.845L290.951 130.079H147.734L170.629 224.208Z" fill="#F9E5EF"/>
<path d="M314.464 224.693H170.246L147.116 129.594H291.333L291.424 129.966L314.464 224.693ZM171.011 223.722H313.23L290.572 130.565H148.353L171.011 223.722Z" fill="#1B2746"/>
<path d="M267.153 217.246L265.754 217.253L256.38 217.288L255.583 217.292L224.519 217.411L210.834 217.463L209.885 217.466L208.337 217.473H208.26L204.147 217.489H204.144L203.069 217.492L202.479 217.496L195.096 217.525H194.909L192.765 217.531L188.921 217.547H188.371L188.303 217.551L181.959 217.573L177.697 217.589L157.125 137.038L246.581 136.698L265.631 211.291L266.68 215.395L267.153 217.246Z" fill="#FBD5B5"/>
<path d="M278.069 262.304H215.924V270.353H278.069V262.304Z" fill="#FBD5B5"/>
<path d="M278.555 270.835H215.438V261.815H278.555V270.835ZM216.41 269.864H277.583V262.786H216.41V269.864Z" fill="#1B2746"/>
<path d="M228.366 108.395H207.236V116.444H228.366V108.395Z" fill="#FBD5B5"/>
<path d="M228.855 116.927H206.754V107.907H228.855V116.927ZM207.722 115.956H227.88V108.878H207.722V115.956Z" fill="#1B2746"/>
<path d="M238.712 231.888C238.712 233.833 240.289 235.409 242.235 235.409C244.181 235.409 245.758 233.833 245.758 231.888C245.758 229.943 244.181 228.367 242.235 228.367C240.292 228.367 238.712 229.943 238.712 231.888Z" fill="#0E2549"/>
<path d="M247.05 136.578L246.956 136.213L156.5 136.556L177.228 217.709L177.322 218.075L255.586 217.777L267.778 217.729L247.05 136.578ZM157.747 137.52L201.395 137.355L221.873 216.936L178.07 217.104L157.747 137.52ZM222.877 216.929L202.398 137.349L246.202 137.183L266.528 216.761L222.877 216.929Z" fill="#1B2746"/>
<path d="M256.911 176.658H167.368V177.629H256.911V176.658Z" fill="#1B2746"/>
<path d="M214.292 116.441L215.436 122.15H222.543L221.491 116.441H214.292Z" fill="#F9E5EF"/>
<path d="M223.126 122.636H215.037L213.7 115.956H221.896L223.126 122.636ZM215.834 121.665H221.96L221.086 116.927H214.882L215.834 121.665Z" fill="#1B2746"/>
<path d="M217.767 114.962C219.056 114.962 220.102 113.917 220.102 112.629C220.102 111.34 219.056 110.295 217.767 110.295C216.477 110.295 215.432 111.34 215.432 112.629C215.432 113.917 216.477 114.962 217.767 114.962Z" fill="#0E2549"/>
<path d="M285.744 140.433H258.008C257.739 140.433 257.522 140.216 257.522 139.947C257.522 139.679 257.739 139.462 258.008 139.462H285.744C286.012 139.462 286.229 139.679 286.229 139.947C286.229 140.216 286.009 140.433 285.744 140.433Z" fill="#1B2746"/>
<path d="M278.655 146.297H265.094C264.825 146.297 264.608 146.08 264.608 145.812C264.608 145.543 264.825 145.326 265.094 145.326H278.655C278.924 145.326 279.141 145.543 279.141 145.812C279.141 146.077 278.924 146.297 278.655 146.297Z" fill="#1B2746"/>
<path d="M286.544 214.648C280.893 214.648 276.298 210.052 276.298 204.407C276.298 198.76 280.896 194.164 286.544 194.164C292.194 194.164 296.793 198.76 296.793 204.407C296.789 210.052 292.194 214.648 286.544 214.648ZM286.544 195.135C281.43 195.135 277.269 199.294 277.269 204.407C277.269 209.518 281.43 213.677 286.544 213.677C291.66 213.677 295.821 209.518 295.821 204.407C295.818 199.294 291.657 195.135 286.544 195.135Z" fill="#1B2746"/>
<path d="M286.667 201.375C284.491 201.427 281.871 202.051 280.601 202.838C278.995 203.831 279.021 205.388 279.102 206.582C279.144 207.194 279.704 207.579 280.294 207.395L282.745 206.738C283.241 206.586 283.571 206.077 283.509 205.573L283.218 204.191C283.208 204.093 283.289 204 283.393 204.006C284.027 204.045 289.257 204.019 289.898 203.932C289.999 203.915 290.08 204.009 290.051 204.113L289.769 205.459C289.62 206.035 289.963 206.582 290.523 206.644L292.78 207.213C293.331 207.275 293.859 206.848 293.943 206.278C294.344 203.501 293.03 202.449 291.968 202.093C291.271 201.86 288.522 201.33 286.667 201.375Z" fill="#FE893A"/>
<path d="M176.564 251.154C176.062 250.271 175.337 249.743 174.404 249.588C172.856 249.326 171.03 250.187 169.663 251.048V247.216H141.167V255.86C141.167 263.725 147.546 270.101 155.415 270.101C160.12 270.101 164.294 267.819 166.888 264.304C167.076 264.317 167.267 264.324 167.452 264.324C170.68 264.324 173.578 262.628 175.479 259.602C177.299 256.705 177.743 253.235 176.564 251.154ZM174.657 259.084C172.957 261.789 170.385 263.32 167.533 263.349C168.883 261.174 169.663 258.608 169.663 255.86V252.213C170.926 251.345 172.801 250.307 174.245 250.549C174.883 250.656 175.366 251.012 175.719 251.637C176.713 253.388 176.269 256.52 174.657 259.084Z" fill="#FE893A"/>
<path d="M150.101 266.528C149.994 266.528 149.887 266.502 149.79 266.447C143.239 262.835 144.023 251.85 144.062 251.384C144.091 251.028 144.399 250.756 144.758 250.789C145.114 250.818 145.38 251.129 145.354 251.485C145.344 251.591 144.599 262.103 150.419 265.314C150.733 265.485 150.846 265.88 150.671 266.194C150.548 266.408 150.328 266.528 150.101 266.528Z" fill="white"/>
<path d="M162.494 244.941C162.371 244.941 162.248 244.895 162.151 244.801C159.518 242.19 158.611 241.125 158.66 237.895C158.705 234.908 160.104 233.623 161.455 232.38C162.384 231.526 163.262 230.72 163.702 229.341C164.716 226.156 160.357 222.871 160.315 222.839C160.101 222.68 160.056 222.376 160.214 222.159C160.373 221.946 160.677 221.9 160.894 222.059C161.098 222.211 165.855 225.787 164.631 229.635C164.113 231.26 163.1 232.192 162.115 233.095C160.859 234.247 159.674 235.338 159.635 237.911C159.589 240.762 160.315 241.61 162.837 244.112C163.028 244.3 163.028 244.607 162.841 244.798C162.743 244.892 162.62 244.941 162.494 244.941Z" fill="#0E2549"/>
<path d="M149.832 244.941C149.709 244.941 149.586 244.895 149.489 244.801C146.857 242.19 145.95 241.125 145.998 237.895C146.044 234.908 147.443 233.623 148.793 232.38C149.722 231.526 150.6 230.72 151.04 229.341C152.054 226.156 147.695 222.871 147.653 222.839C147.439 222.68 147.394 222.376 147.553 222.159C147.711 221.946 148.016 221.9 148.233 222.059C148.437 222.211 153.194 225.787 151.97 229.635C151.452 231.26 150.438 232.192 149.454 233.095C148.197 234.247 147.012 235.338 146.973 237.911C146.928 240.762 147.653 241.61 150.176 244.112C150.367 244.3 150.367 244.607 150.179 244.798C150.082 244.892 149.959 244.941 149.832 244.941Z" fill="#0E2549"/>
<path d="M156.6 242.374C156.477 242.374 156.354 242.326 156.257 242.232C153.624 239.62 152.717 238.555 152.766 235.325C152.811 232.338 154.21 231.053 155.561 229.81C156.49 228.956 157.368 228.15 157.808 226.771C158.821 223.587 154.463 220.302 154.421 220.269C154.207 220.111 154.162 219.806 154.32 219.59C154.479 219.376 154.783 219.331 155 219.489C155.204 219.641 159.961 223.218 158.737 227.066C158.219 228.69 157.206 229.622 156.221 230.525C154.965 231.678 153.78 232.768 153.741 235.341C153.695 238.193 154.421 239.041 156.943 241.542C157.134 241.73 157.134 242.037 156.947 242.228C156.849 242.329 156.726 242.374 156.6 242.374Z" fill="#0E2549"/>
<path d="M239.544 181.131C238.194 181.186 234.907 181.283 234.752 183.678C234.577 186.41 234.813 189.954 234.969 191.821C235.03 192.559 235.623 193.138 236.361 193.187L244.631 193.717C245.389 193.766 246.063 193.238 246.199 192.491C246.652 189.976 247.355 184.591 247.105 183.762C246.26 180.947 241.685 181.04 239.544 181.131Z" fill="#0E2549"/>
<path d="M236.477 193.863C236.477 193.863 236.303 200.278 235.687 200.97C235.072 201.663 231.999 203.135 231.999 203.135L241.697 210.159L248.193 205.896C248.193 205.896 245.007 202.673 244.754 201.809C244.405 200.614 244.881 194.404 244.881 194.404L236.477 193.863Z" fill="white"/>
<path d="M241.685 210.744L231.054 203.048L231.789 202.695C232.942 202.142 234.923 201.1 235.325 200.647C235.633 200.197 235.914 196.766 235.992 193.847C235.998 193.578 236.219 193.361 236.491 193.374C236.759 193.381 236.97 193.604 236.963 193.873C236.908 195.854 236.714 200.543 236.05 201.287C235.568 201.831 233.92 202.712 232.935 203.207L241.711 209.56L247.433 205.806C246.416 204.757 244.515 202.718 244.288 201.935C243.926 200.689 244.35 195.002 244.398 194.358C244.418 194.09 244.651 193.892 244.92 193.912C245.189 193.931 245.386 194.164 245.367 194.433C245.185 196.799 244.985 200.854 245.221 201.663C245.357 202.122 247.047 204.038 248.54 205.547L248.958 205.967L241.685 210.744Z" fill="#0E2549"/>
<path d="M239.667 196.229C241.996 196.653 244.952 196.397 245.82 195.637C246.328 195.19 246.639 193.319 246.834 191.174C246.84 191.112 247.141 183.477 247.141 183.477L236.649 182.804C236.649 182.804 236.52 185.118 236.455 187.717C236.452 187.834 236.322 187.902 236.225 187.837C235.691 187.481 234.943 187.17 234.859 188.138C234.752 189.345 235.788 190.167 236.326 190.462C236.381 190.494 236.416 190.552 236.416 190.614C236.42 192.449 236.494 194.041 236.711 194.617C236.828 194.931 237.077 195.2 237.417 195.43L239.667 196.229Z" fill="white"/>
<path d="M242.067 196.918C241.215 196.918 240.351 196.847 239.583 196.708C239.318 196.659 239.143 196.407 239.191 196.145C239.24 195.879 239.492 195.708 239.755 195.753C242.141 196.187 244.848 195.844 245.499 195.274C245.587 195.197 246.034 194.64 246.348 191.132C246.354 191.002 246.529 186.61 246.636 183.934L237.109 183.322C237.067 184.138 236.989 185.869 236.941 187.73C236.934 187.96 236.805 188.17 236.601 188.277C236.397 188.384 236.151 188.371 235.956 188.241C235.645 188.034 235.458 187.983 235.386 187.976C235.373 188.005 235.354 188.067 235.344 188.18C235.247 189.28 236.426 189.963 236.562 190.038C236.772 190.154 236.902 190.374 236.905 190.614C236.912 193.358 237.073 194.193 237.167 194.449C237.245 194.653 237.42 194.847 237.689 195.028C237.912 195.177 237.97 195.478 237.821 195.701C237.673 195.925 237.371 195.983 237.148 195.834C236.708 195.536 236.41 195.187 236.261 194.789C236.128 194.433 235.95 193.63 235.937 190.792C235.121 190.284 234.272 189.313 234.379 188.093C234.434 187.468 234.723 187.206 234.956 187.092C235.247 186.953 235.587 186.97 235.989 187.144C236.057 184.798 236.167 182.798 236.17 182.775L236.196 182.286L247.649 183.024L247.627 183.494C247.426 188.565 247.319 191.164 247.316 191.212C246.992 194.824 246.516 195.666 246.14 195.999C245.428 196.627 243.773 196.918 242.067 196.918Z" fill="#0E2549"/>
<path d="M236.409 190.423C236.409 190.423 236.701 190.753 237.313 191.433C238.019 192.219 245.007 192.261 245.512 192.047C246.626 191.572 246.409 190.611 246.807 190.717C247.303 190.85 246.432 195.743 245.865 196.404C245.302 197.064 240.231 196.98 237.549 196.252C235.325 195.643 236.409 190.423 236.409 190.423Z" fill="#0E2549"/>
<path d="M236.601 183.345C236.601 183.345 244.288 186.109 248.006 183.584C251.726 181.06 246.105 180.584 242.698 180.71C239.292 180.836 234.499 181.218 236.601 183.345Z" fill="#0E2549"/>
<path d="M224.357 217.331C226.387 211.683 229.868 203.886 233.767 202.741C233.903 202.702 236.989 203.424 239.22 203.841C239.729 203.356 240.47 203.301 241.484 203.783C241.49 203.783 241.494 203.786 241.5 203.789C241.604 203.841 245.787 202.964 245.927 202.948C247.581 202.741 257.817 214.528 259.152 217.269C259.152 217.288 224.357 217.331 224.357 217.331Z" fill="white"/>
<path d="M223.664 217.816L223.897 217.165C226.102 211.026 229.584 203.462 233.628 202.275C233.803 202.226 233.822 202.22 235.956 202.676C236.908 202.88 238.074 203.129 239.084 203.323C239.577 202.967 240.37 202.75 241.588 203.301C242.06 203.236 243.939 202.854 244.878 202.666C245.697 202.501 245.817 202.479 245.872 202.472C248.058 202.184 258.443 214.709 259.589 217.065L259.637 217.165V217.279C259.637 217.764 259.233 217.764 258.763 217.767L257.659 217.771C256.707 217.774 255.347 217.777 253.718 217.78C250.457 217.787 246.105 217.793 241.756 217.8C233.058 217.813 224.357 217.822 224.357 217.822L223.664 217.816ZM233.822 203.233C231.07 204.11 227.968 208.925 225.05 216.845C229.47 216.839 253.566 216.809 258.323 216.797C255.975 213.055 247.251 203.524 245.969 203.436C245.924 203.446 245.561 203.521 245.072 203.618C242.196 204.2 241.63 204.304 241.413 204.271H241.377L241.277 204.223C240.111 203.666 239.693 204.064 239.557 204.194L239.376 204.365L239.13 204.32C238.061 204.119 236.782 203.848 235.756 203.627C234.93 203.453 234.081 203.268 233.822 203.233Z" fill="#0E2549"/>
<path d="M245.295 216.777L241.448 216.784L241.082 207.081L239.282 205.055L241.646 203.644L244.026 205.055L242.782 206.88L245.295 216.777Z" fill="#FE893A"/>
<path d="M241.642 203.479L237.679 206.123L232.174 202.922L234.81 201.527L241.642 203.479Z" fill="white"/>
<path d="M241.643 203.479L244.716 205.751L248.193 203.844L246.468 202.278L241.643 203.479Z" fill="white"/>
<path d="M249.022 203.945L246.6 201.744L241.649 202.977L234.751 201.006L231.17 202.899L237.692 206.692L241.626 204.071L244.677 206.323L249.022 203.945ZM237.659 205.55L233.174 202.941L234.865 202.048L240.502 203.66L237.659 205.55ZM246.331 202.812L247.361 203.747L244.754 205.174L242.759 203.699L246.331 202.812Z" fill="#0E2549"/>
<path d="M191.748 153.819C191.748 153.819 191.006 160.246 191.544 160.949C192.081 161.651 195.223 162.913 195.223 162.913L189.656 174.131L179.605 174.14L177.84 165.891C177.84 165.891 183.057 161.868 183.38 161.052C183.827 159.926 183.911 153.932 183.911 153.932L191.748 153.819Z" fill="white"/>
<path d="M179.2 174.639L177.286 165.687L177.535 165.496C179.997 163.599 182.684 161.347 182.921 160.864C183.219 160.11 183.38 156.207 183.413 153.929C183.416 153.654 183.643 153.43 183.918 153.437C184.193 153.44 184.413 153.667 184.41 153.942C184.4 154.563 184.31 160.059 183.844 161.237C183.523 162.046 180.103 164.768 178.394 166.091L180.006 173.639L189.342 173.629L194.536 163.169C193.548 162.751 191.628 161.881 191.146 161.253C190.573 160.502 190.964 156.236 191.249 153.76C191.282 153.485 191.528 153.291 191.803 153.32C192.078 153.353 192.273 153.599 192.243 153.874C191.913 156.751 191.709 160.165 191.955 160.667C192.221 161.01 193.96 161.865 195.41 162.447L195.912 162.648L189.967 174.626L179.2 174.639Z" fill="#0E2549"/>
<path d="M189.88 141.151C191.291 141.287 194.727 141.579 194.666 143.957C194.594 146.669 194.012 150.158 193.672 151.993C193.539 152.718 192.862 153.256 192.082 153.259L183.358 153.288C182.558 153.291 181.901 152.728 181.829 151.984C181.59 149.472 181.136 144.152 181.473 143.346C182.629 140.614 187.645 140.934 189.88 141.151Z" fill="#0E2549"/>
<path d="M183.986 155.058C183.526 154.599 183.387 152.783 183.39 150.712C183.39 150.65 183.358 150.598 183.306 150.569C182.743 150.252 182.033 149.65 182.082 148.621C182.127 147.731 182.707 147.835 183.238 148.119C183.332 148.171 183.452 148.103 183.455 147.996C183.565 145.495 183.769 143.304 183.769 143.304L194.138 143.268C194.138 143.268 194.057 145.498 193.892 147.996C193.885 148.11 193.289 154.074 193.027 154.615C192.885 154.909 192.616 155.155 192.263 155.353C192.263 155.353 191.583 155.864 187.817 155.877L183.986 155.058Z" fill="white"/>
<path d="M187.814 156.379C187.539 156.379 187.312 156.155 187.312 155.88C187.312 155.602 187.535 155.379 187.811 155.379C191.042 155.369 191.881 154.99 191.978 154.939L192.014 154.916C192.292 154.757 192.48 154.583 192.574 154.395C192.785 153.861 193.338 148.598 193.39 147.961C193.507 146.21 193.581 144.575 193.614 143.77L184.226 143.802C184.161 144.569 184.032 146.223 183.954 148.016C183.944 148.239 183.821 148.44 183.627 148.55C183.429 148.66 183.196 148.663 182.999 148.56C182.788 148.446 182.668 148.42 182.617 148.417C182.604 148.453 182.584 148.521 182.578 148.644C182.549 149.252 182.872 149.751 183.546 150.132C183.756 150.252 183.886 150.472 183.886 150.712C183.883 154.152 184.291 154.657 184.336 154.706C184.53 154.9 184.534 155.217 184.336 155.414C184.142 155.608 183.824 155.612 183.627 155.414C183.284 155.074 182.895 154.249 182.882 150.903C181.992 150.34 181.529 149.524 181.574 148.592C181.6 148.074 181.781 147.718 182.108 147.534C182.351 147.398 182.639 147.375 182.973 147.469C183.086 145.197 183.264 143.274 183.264 143.255L183.306 142.802L194.65 142.763L194.63 143.284C194.63 143.307 194.549 145.55 194.384 148.029C194.381 148.087 193.798 154.159 193.468 154.832C193.286 155.204 192.966 155.521 192.516 155.777C192.263 155.948 191.266 156.366 187.814 156.379C187.817 156.379 187.817 156.379 187.814 156.379Z" fill="#0E2549"/>
<path d="M198.448 164.554C197.198 163.716 196.09 163.085 195.187 162.664L195.323 162.606L193.056 160.259L187.988 162.599L181.318 159.978L178.798 161.987C175.981 163.651 170.667 169.658 167.523 177.144H206.226C204.866 173.483 202.049 166.968 198.448 164.554Z" fill="#FE893A"/>
<path d="M188.73 164.237L189.795 165.509L196.161 162.774L193.166 159.673L187.972 162.072L181.233 159.421L177.14 162.687L186.052 165.729L187.674 163.748C188.011 165.952 188.804 171.279 189.578 177.202C189.611 177.448 189.818 177.626 190.061 177.626C190.08 177.626 190.103 177.626 190.125 177.623C190.391 177.587 190.579 177.344 190.543 177.079C189.831 171.655 189.105 166.729 188.73 164.237ZM194.484 162.437L190.074 164.331L188.765 162.774L192.943 160.845L194.484 162.437ZM185.725 164.596L179.128 162.344L181.398 160.534L187.188 162.81L185.725 164.596Z" fill="#0E2549"/>
<path d="M192.295 144.41C193.532 144.304 195.864 143.753 195.582 141.239C195.304 138.727 194.841 139.653 194.841 139.653C194.841 139.653 194.342 140.229 194.148 140.258C193.953 140.287 194.355 140.417 193.672 138.345C193.672 138.345 191.829 138.044 191.058 139.258C190.288 140.472 189.708 139.828 189.4 139.239C189.138 138.737 188.377 139.423 188.238 139.944C187.963 140.536 185.142 140.32 184.316 140.779C183.008 141.504 182.558 141.808 182.623 143.611C182.636 143.957 183.215 147.313 183.215 147.313L184.219 143.74C184.219 143.74 190.275 144.585 192.295 144.41Z" fill="#0E2549"/>
<path d="M231.14 139.931C231.14 139.931 235.337 139.792 237.484 143.439C238.051 144.404 238.022 144.575 237.737 145.637C237.617 146.08 238.388 146.608 238.368 147.22C238.355 147.559 238.148 148.042 238.164 148.411C238.187 148.922 238.698 149.145 238.773 149.676C238.822 150.009 238.323 150.33 238.391 150.657C238.462 151 239.11 151.236 239.2 151.556C239.32 151.984 239.003 152.294 239.003 152.705C239.003 153.201 239.385 153.314 239.855 153.605C240.198 153.819 239.851 154.906 240.059 155.113C240.24 155.298 240.781 155.618 240.845 155.812C241.004 156.262 240.658 156.602 240.709 156.848C240.79 157.23 241.525 157.363 241.642 157.702C241.755 158.033 241.467 158.57 241.386 158.965C241.318 159.295 241.953 159.622 241.982 159.868C242.073 160.589 241.83 161.042 241.814 161.285C241.791 161.599 242.597 162.224 242.578 162.628C242.225 171.114 219.706 169.483 219.949 163.525C219.965 163.153 220.759 162.913 220.506 162.476C220.331 162.172 220.176 161.936 220.05 161.586C219.914 161.207 220.707 160.864 220.879 160.505C221.138 159.958 220.098 159.648 220.406 158.599C220.642 157.79 221.419 157.958 221.351 157.317C221.296 156.799 220.749 156.123 220.846 155.696C221.138 154.385 222.268 154.269 221.86 153.874C221.419 153.447 221.131 153.246 221.309 152.33C221.387 151.938 221.97 151.09 221.97 151.09C221.915 150.391 221.16 149.996 221.429 148.903C221.814 147.346 222.339 148.504 222.193 146.1C222.171 145.66 222.928 138.886 231.14 139.931Z" fill="#0E2549"/>
<path d="M227.491 152.832C227.491 152.832 227.789 160.123 227.511 160.508C226.559 161.822 223.732 162.978 223.087 163.149C222.443 163.324 232.867 169.952 232.867 169.952L239.003 164.959L236.934 163.091C236.934 163.091 235.195 162.217 234.428 161.428C233.663 160.638 233.291 153.22 233.291 153.22L227.491 152.832Z" fill="white"/>
<path d="M232.899 170.548L232.605 170.36C222.456 163.907 222.521 163.479 222.579 163.101C222.612 162.897 222.757 162.735 222.961 162.68C223.638 162.499 226.206 161.402 227.08 160.272C227.2 159.68 227.139 156.081 227.009 152.851L226.986 152.311L233.754 152.76L233.777 153.191C233.949 156.609 234.383 160.602 234.781 161.091C235.357 161.686 236.688 162.421 237.151 162.654L237.209 162.683L239.748 164.975L232.899 170.548ZM223.926 163.369C225.248 164.415 229.169 167.02 232.831 169.354L238.255 164.939L236.653 163.496C236.329 163.327 234.816 162.528 234.075 161.764C233.317 160.981 232.961 156.146 232.825 153.673L227.997 153.353C228.266 160.292 228.013 160.641 227.903 160.793C227.071 161.939 225.079 162.913 223.926 163.369Z" fill="#0E2549"/>
<path d="M228.142 154.586C227.284 154.016 225.221 152.301 225.179 151.181C225.14 150.058 226.419 150.191 226.811 150.369C227.07 150.485 226.805 144.873 226.805 144.873L235.496 144.407C235.496 144.407 236.785 149.233 236.474 152.333C236.163 155.447 234.703 155.964 232.468 156.353L228.142 154.586Z" fill="white"/>
<path d="M232.468 156.835C232.235 156.835 232.031 156.67 231.989 156.434C231.944 156.168 232.119 155.919 232.384 155.874C234.628 155.482 235.716 155.003 235.988 152.285C236.238 149.802 235.409 146.1 235.121 144.912L227.31 145.33C227.543 150.466 227.346 150.598 227.1 150.767L226.873 150.919L226.607 150.809C226.442 150.734 225.992 150.683 225.782 150.822C225.743 150.848 225.652 150.909 225.662 151.162C225.688 151.912 227.307 153.45 228.408 154.181C228.631 154.33 228.693 154.631 228.544 154.854C228.395 155.078 228.094 155.139 227.87 154.99C227.838 154.971 224.752 152.848 224.69 151.197C224.671 150.686 224.868 150.265 225.241 150.016C225.587 149.783 226.037 149.734 226.426 149.776C226.462 148.886 226.407 146.789 226.316 144.893L226.293 144.41L235.859 143.899L235.959 144.281C236.014 144.482 237.267 149.229 236.95 152.382C236.6 155.854 234.829 156.434 232.543 156.832C232.523 156.832 232.494 156.835 232.468 156.835Z" fill="#0E2549"/>
<path d="M236.5 144.203C236.5 144.203 235.901 144.236 234.832 144.65C234.586 144.744 234.431 145.527 234.155 145.64C233.845 145.77 233.278 145.427 232.941 145.579C232.591 145.741 232.442 146.22 232.083 146.404C231.801 146.55 231.309 146.394 231.031 146.556C230.564 146.822 230.451 147.349 230.017 147.657C229.732 147.857 228.926 147.857 228.683 148.097C228.233 148.537 228.226 149.255 228.051 149.424C227.446 150.009 227.209 149.76 226.934 150.44C226.934 150.44 226.442 150.22 226.086 150.249C225.629 150.285 225.467 150.44 225.467 150.44L225.966 144.009L236.5 144.203Z" fill="#0E2549"/>
<path d="M252.4 177.144H218.185C217.621 171.338 217.696 166.039 219.448 164.24C220.97 162.674 222.317 162.512 223.062 162.512C225.296 162.509 235.088 171.571 237.85 162.622C238.249 161.337 241.273 162.945 242.128 163.622C244.563 165.548 250.088 173.221 252.4 177.144Z" fill="#F9E5EF"/>
<path d="M253.248 177.629H217.741L217.699 177.189C216.996 169.936 217.453 165.59 219.098 163.9C220.306 162.657 221.64 162.026 223.058 162.026C223.058 162.026 223.058 162.026 223.061 162.026C223.761 162.026 224.807 162.609 226.258 163.415C228.832 164.845 232.355 166.806 234.823 165.816C235.998 165.344 236.837 164.253 237.384 162.479C237.497 162.107 237.769 161.842 238.145 161.725C239.437 161.327 241.856 162.793 242.426 163.243C244.926 165.221 250.45 172.891 252.814 176.901L253.248 177.629ZM218.625 176.658H251.538C249.013 172.561 244.029 165.745 241.827 164.004C241.079 163.411 239.136 162.437 238.437 162.651C238.356 162.677 238.333 162.706 238.313 162.764C237.682 164.806 236.63 166.137 235.185 166.716C232.287 167.878 228.531 165.79 225.785 164.263C224.664 163.638 223.505 162.994 223.058 162.994C221.892 162.994 220.827 163.512 219.791 164.573C218.839 165.56 217.874 168.457 218.625 176.658Z" fill="#1B2746"/>
<path d="M191.842 185.199C185.897 181.633 193.782 177.943 195.715 179.875C197.208 181.367 196.35 182.905 195.848 183.562C197.253 183.387 198.646 183.639 199.821 184.452C204.976 188.012 202.039 193.439 202.039 193.439C202.039 193.439 200.223 202.802 193.581 198.996C185.689 194.478 187.697 188.177 191.842 185.199Z" fill="#0E2549"/>
<path d="M193.685 195.837C193.685 195.837 194.025 202.902 193.759 203.275C192.846 204.553 190.116 205.696 189.491 205.867C188.869 206.039 199.74 210.091 199.74 210.091L204.924 207.501L202.904 205.708C202.904 205.708 201.21 204.873 200.465 204.113C199.717 203.352 199.303 196.167 199.303 196.167L193.685 195.837Z" fill="white"/>
<path d="M199.769 210.621L199.572 210.547C188.95 206.589 188.963 206.304 188.983 205.87C188.992 205.65 189.144 205.463 189.365 205.401C190.016 205.22 192.49 204.142 193.328 203.045C193.438 202.462 193.354 198.983 193.202 195.86L193.176 195.32L199.766 195.708L199.792 196.138C199.983 199.44 200.43 203.297 200.818 203.776C201.378 204.346 202.671 205.048 203.121 205.272L203.179 205.301L205.786 207.615L199.769 210.621ZM190.595 205.971C192.243 206.712 196.12 208.223 199.711 209.563L204.066 207.388L202.632 206.113C202.311 205.951 200.841 205.187 200.119 204.453C199.377 203.699 198.995 199.025 198.846 196.627L194.196 196.352C194.507 203.061 194.261 203.407 194.154 203.556C193.419 204.585 191.729 205.482 190.595 205.971Z" fill="#0E2549"/>
<path d="M194.423 197.935C193.587 197.391 191.479 195.342 191.431 194.255C191.382 193.167 192.625 193.284 193.004 193.455C193.257 193.569 192.846 187.455 192.846 187.455L201.246 186.766C201.246 186.766 202.661 192.284 202.382 195.287C202.104 198.307 200.724 199.096 198.529 199.21L194.423 197.935Z" fill="white"/>
<path d="M198.532 199.698C198.276 199.698 198.063 199.498 198.047 199.239C198.034 198.97 198.238 198.744 198.506 198.727C200.462 198.624 201.641 198.022 201.9 195.245C202.127 192.815 201.184 188.591 200.874 187.283L193.364 187.902C193.733 193.549 193.552 193.679 193.299 193.853L193.076 194.009L192.81 193.899C192.648 193.828 192.218 193.785 192.024 193.918C191.988 193.941 191.907 193.999 191.917 194.235C191.952 195.041 193.821 196.964 194.689 197.53C194.912 197.676 194.977 197.977 194.831 198.203C194.685 198.427 194.384 198.491 194.157 198.346C193.429 197.87 191.007 195.676 190.945 194.281C190.923 193.779 191.11 193.368 191.476 193.119C191.803 192.895 192.231 192.84 192.603 192.873C192.616 191.915 192.506 189.594 192.364 187.491L192.331 187.015L201.615 186.251L201.715 186.649C201.774 186.879 203.15 192.284 202.865 195.339C202.596 198.255 201.307 199.559 198.555 199.702C198.552 199.695 198.542 199.698 198.532 199.698Z" fill="#0E2549"/>
<path d="M209.885 217.049C209.918 214.719 209.723 208.269 206.417 206.058C205.222 205.255 204.484 204.708 203.921 204.407C203.911 204.401 203.901 204.398 203.891 204.398C203.574 204.216 203.315 204.132 203.062 204.113C203.037 204.11 203.007 204.11 202.981 204.11C202.923 204.113 202.868 204.119 202.813 204.136H202.81C202.807 204.132 202.807 204.132 202.803 204.136C202.447 204.22 202.152 204.53 201.858 204.938C201.825 204.984 201.793 205.026 201.761 205.074C201.706 205.152 201.651 205.229 201.596 205.314V205.32C200.456 206.993 198.998 209.427 193.71 205.844C193.613 205.78 193.516 205.712 193.416 205.644C193.079 205.407 192.729 205.145 192.36 204.861C192.263 204.783 192.143 204.734 192.01 204.708C191.9 204.686 191.78 204.679 191.651 204.686C191.211 204.702 190.673 204.867 190.158 205.071C189.676 205.255 189.209 205.475 188.85 205.634C186.878 206.501 186.842 208.103 187.215 209.605C187.568 211.029 188.286 212.363 188.066 212.897L188.157 214.703L188.384 217.033L209.885 217.049Z" fill="#FE893A"/>
<path d="M210.947 216.457C210.918 216.742 210.879 217.185 210.834 217.463L203.088 217.502C202.615 214.156 202.23 211.055 202.023 208.793V208.79C201.871 207.11 201.806 205.799 201.848 204.964C201.851 204.896 201.858 204.835 201.861 204.776C201.91 204.21 202.013 203.909 202.191 203.916C202.392 203.922 202.599 203.941 202.807 203.974C202.81 203.971 202.81 203.971 202.813 203.974H202.816C202.894 203.983 202.972 203.996 203.049 204.013C203.331 204.064 203.613 204.139 203.895 204.236C203.904 204.236 203.914 204.239 203.924 204.246C205.562 204.806 207.223 206.1 208.438 208.204C209.413 209.893 211.223 213.835 210.947 216.457Z" fill="#F9E5EF"/>
<path d="M202.667 217.987L202.609 217.567C202.107 214.013 201.738 210.994 201.54 208.835L201.537 208.809C201.379 207.068 201.32 205.763 201.362 204.938C201.366 204.896 201.369 204.854 201.372 204.815L201.379 204.747C201.411 204.369 201.485 203.414 202.211 203.43C202.412 203.436 202.619 203.456 202.826 203.485L203.011 203.482L203.043 203.514C203.079 203.521 203.114 203.527 203.15 203.534C203.419 203.582 203.697 203.653 203.976 203.747H204.044L204.131 203.799C206.012 204.456 207.693 205.932 208.862 207.958C209.876 209.718 211.721 213.767 211.433 216.502L211.414 216.696C211.388 216.965 211.355 217.301 211.317 217.538L211.252 217.942L202.667 217.987ZM202.509 208.77C202.697 210.828 203.043 213.67 203.513 217.013L210.407 216.978C210.42 216.851 210.433 216.722 210.446 216.602L210.465 216.402C210.708 214.094 209.134 210.379 208.017 208.443C206.964 206.621 205.475 205.301 203.814 204.718L203.736 204.692C203.477 204.605 203.218 204.534 202.962 204.488C202.956 204.488 202.949 204.485 202.943 204.485L202.768 204.459H202.612L202.586 204.433C202.525 204.427 202.46 204.42 202.399 204.414C202.379 204.498 202.36 204.624 202.344 204.818L202.331 204.987C202.292 205.773 202.35 207.039 202.505 208.744L202.509 208.77Z" fill="#1B2746"/>
<path d="M194.025 208.9C193.97 208.524 193.911 208.168 193.856 207.835C193.707 206.938 193.561 206.2 193.419 205.644C193.247 204.951 193.082 204.537 192.927 204.453C192.83 204.398 192.723 204.356 192.606 204.33C192.438 204.284 192.247 204.265 192.043 204.265C191.583 204.268 191.052 204.372 190.508 204.537C190.508 204.537 184.31 204.932 182.723 213.382C182.451 214.822 182.195 216.227 181.959 217.573L188.303 217.551L188.371 217.547H188.617H188.921L192.765 217.531L194.909 217.525H195.096C194.73 214.11 194.368 211.139 194.025 208.9Z" fill="#F9E5EF"/>
<path d="M181.379 218.062L181.48 217.489C181.719 216.123 181.978 214.712 182.244 213.291C183.792 205.039 189.721 204.136 190.411 204.058C191.023 203.877 191.57 203.783 192.036 203.78C192.295 203.78 192.529 203.805 192.729 203.86C192.869 203.89 193.021 203.951 193.163 204.029C193.413 204.165 193.623 204.462 193.889 205.524C194.031 206.074 194.18 206.825 194.332 207.751C194.387 208.087 194.446 208.446 194.501 208.822C194.828 210.955 195.187 213.861 195.576 217.466L195.634 218.004L188.322 218.03L181.379 218.062ZM192.043 204.75C191.664 204.754 191.181 204.841 190.65 205.003L190.54 205.022C190.304 205.039 184.695 205.521 183.202 213.473C182.973 214.693 182.749 215.903 182.542 217.088L194.559 217.042C194.196 213.699 193.856 210.987 193.549 208.974V208.971C193.494 208.599 193.435 208.246 193.38 207.916C193.231 207.016 193.086 206.294 192.953 205.767C192.797 205.139 192.69 204.922 192.652 204.857C192.603 204.835 192.554 204.818 192.506 204.809C192.36 204.767 192.214 204.75 192.043 204.75ZM192.687 204.877C192.69 204.877 192.694 204.88 192.694 204.88C192.69 204.877 192.69 204.877 192.687 204.877Z" fill="#1B2746"/>
<path d="M202.817 208.434L205.012 212.233L203.888 217.496H203.885L202.81 217.499L202.221 217.502L201.609 209.039L201.34 205.327V205.32L201.314 204.964L201.139 202.569L202.726 204.116L202.791 204.181L205.155 206.485L204.215 207.107L202.651 208.146L202.817 208.434Z" fill="white"/>
<path d="M201.828 217.926L200.637 201.495L205.821 206.55L203.211 208.278L205.455 212.162L204.228 217.916L201.828 217.926ZM201.641 203.644L202.612 217.078L203.548 217.075L204.568 212.304L202.091 208.013L204.487 206.424L201.641 203.644Z" fill="#0E2549"/>
<path d="M194.909 217.525L192.765 217.531L190.76 213.026L192.826 208.76L189.135 207.411L190.161 206.301L191.243 205.129L191.654 204.686L192.043 204.265L193.4 202.796L193.484 203.605L193.714 205.844L193.918 207.861L194.024 208.9L194.909 217.525Z" fill="white"/>
<path d="M192.447 218.017L190.223 213.016L192.153 209.032L188.28 207.618L193.769 201.679L195.443 218.01L192.447 218.017ZM191.295 213.036L193.079 217.046L194.371 217.042L193.493 208.495L191.295 213.036ZM189.986 207.204L193.493 208.485L193.027 203.912L189.986 207.204Z" fill="#0E2549"/>
<path d="M202.415 191.229C202.415 191.229 201.554 188.047 198.617 188.164C197.065 188.225 195.194 188.62 194.336 189.436C193.507 190.222 192.891 193.51 192.891 193.51L191.392 187.335L200.938 185.72L202.415 191.229Z" fill="#0E2549"/>
<path d="M87.5879 291.924C87.5879 291.924 98.4489 321.974 98.4489 334.188C98.4489 346.403 100.631 357.889 109.682 361.556C118.733 365.226 125.268 359.662 126.799 357.462C128.691 354.746 132.434 337.532 113.934 317.408C106.674 309.504 87.5879 291.924 87.5879 291.924Z" fill="#FBD5B5"/>
<path d="M115.689 363.271C113.798 363.271 111.726 362.909 109.501 362.006C101.739 358.86 97.9632 349.759 97.9632 334.185C97.9632 322.194 87.2382 292.383 87.1314 292.086L86.4546 290.218L87.915 291.565C88.1061 291.739 107.098 309.252 114.294 317.077C124.222 327.877 127.496 337.616 128.493 343.885C129.626 350.995 128.299 356.154 127.198 357.737C125.971 359.504 121.774 363.271 115.689 363.271ZM88.7051 293.617C91.082 300.41 98.9379 323.644 98.9379 334.188C98.9379 349.322 102.513 358.125 109.87 361.109C118.659 364.672 124.908 359.336 126.408 357.187C127.978 354.931 132.282 338.079 113.584 317.738C107.574 311.203 93.2937 297.876 88.7051 293.617Z" fill="#1B2746"/>
<path d="M125.103 378.997C124.889 378.997 124.704 378.835 124.678 378.618C122.45 358.572 101.846 316.757 101.638 316.336C101.535 316.126 101.619 315.867 101.833 315.763C102.043 315.66 102.299 315.747 102.406 315.958C102.613 316.378 123.283 358.326 125.53 378.521C125.556 378.754 125.388 378.968 125.151 378.99C125.135 378.997 125.119 378.997 125.103 378.997Z" fill="#0E2549"/>
<path d="M117.545 256.941C117.545 256.941 108.29 296.798 113.361 321.003C118.432 345.208 123.584 354.306 130.057 347.778C136.53 341.25 134.445 299.109 129.872 285.813C125.297 272.521 117.545 256.941 117.545 256.941Z" fill="#FBD5B5"/>
<path d="M126.142 350.312C125.763 350.312 125.391 350.257 125.018 350.147C120.618 348.85 116.764 339.619 112.881 321.1C107.846 297.07 116.975 257.229 117.068 256.831L117.373 255.514L117.975 256.724C118.053 256.88 125.792 272.486 130.326 285.658C132.58 292.205 134.293 305.734 134.587 319.324C134.746 326.554 134.652 343.83 130.397 348.121C128.956 349.578 127.528 350.312 126.142 350.312ZM117.719 258.404C116.178 265.576 109.368 299.575 113.837 320.903C117.583 338.787 121.333 348.047 125.297 349.218C126.676 349.626 128.12 349.044 129.71 347.438C132.482 344.645 133.943 334.143 133.619 319.346C133.328 306.057 131.598 292.335 129.409 285.975C125.643 275.02 119.64 262.362 117.719 258.404Z" fill="#1B2746"/>
<path d="M129.559 378.997C129.546 378.997 129.536 378.997 129.523 378.994C129.287 378.974 129.112 378.767 129.131 378.534C130.129 366.297 119.439 285.72 119.329 284.907C119.297 284.674 119.462 284.461 119.695 284.428C119.932 284.399 120.145 284.561 120.174 284.794C120.615 288.115 130.984 366.274 129.98 378.602C129.964 378.829 129.779 378.997 129.559 378.997Z" fill="#0E2549"/>
<path d="M163.748 292.597C163.748 292.597 152.887 322.647 152.887 334.862C152.887 347.076 150.704 358.562 141.653 362.229C132.602 365.899 126.068 360.336 124.536 358.132C122.645 355.416 118.901 338.202 137.401 318.077C144.662 310.181 163.748 292.597 163.748 292.597Z" fill="#FBD5B5"/>
<path d="M135.65 363.947C129.565 363.947 125.368 360.18 124.138 358.413C123.037 356.831 121.709 351.672 122.842 344.561C123.84 338.292 127.114 328.554 137.042 317.754C144.237 309.925 163.229 292.416 163.42 292.241L164.881 290.895L164.204 292.762C164.097 293.063 153.372 322.871 153.372 334.862C153.372 350.435 149.6 359.533 141.835 362.679C139.613 363.582 137.541 363.947 135.65 363.947ZM162.634 294.293C158.045 298.549 143.761 311.88 137.758 318.411C119.06 338.752 123.364 355.604 124.934 357.856C126.43 360.005 132.683 365.342 141.472 361.779C148.826 358.798 152.404 349.992 152.404 334.862C152.401 324.321 160.253 301.086 162.634 294.293Z" fill="#1B2746"/>
<path d="M126.236 379.673C126.22 379.673 126.204 379.673 126.188 379.67C125.954 379.644 125.783 379.434 125.809 379.198C128.053 359.002 148.722 317.055 148.933 316.634C149.036 316.424 149.292 316.336 149.506 316.44C149.716 316.543 149.804 316.802 149.7 317.013C149.493 317.433 128.888 359.245 126.66 379.295C126.634 379.511 126.45 379.673 126.236 379.673Z" fill="#0E2549"/>
<path d="M101.609 378.57H151.996L145.963 432.398L107.341 432.515L101.609 378.57Z" fill="#FE893A"/>
<path d="M444.756 366.569C444.756 366.569 457.065 429.372 456.203 432.392C455.339 435.411 437.762 367.899 437.762 367.899L444.756 366.569Z" fill="#0E2549"/>
<path d="M425.958 372.187C425.958 372.187 425.761 430.501 424.249 432.443C422.736 434.385 419.067 372.757 419.067 372.757L425.958 372.187Z" fill="#0E2549"/>
<path d="M386.471 372.187C386.471 372.187 396.403 431.022 394.46 432.489C392.517 433.955 380.206 371.932 380.206 371.932L386.471 372.187Z" fill="#0E2549"/>
<path d="M370.29 371.249C370.29 371.249 350.204 431.149 346.531 431.579C342.863 432.01 363.338 370.624 363.338 370.624L370.29 371.249Z" fill="#0E2549"/>
<path d="M436.965 245.704C436.965 245.704 465.591 242.073 466.886 254.3C468.182 266.524 471.29 357.468 451.926 367.177C432.561 376.887 362.94 371.385 354.52 369.443C346.101 367.501 348.044 338.049 348.044 338.049L420.256 328.34L429.216 248.4L436.965 245.704Z" fill="#FBD5B5"/>
<path d="M407.332 373.229C383.308 373.229 358.762 370.919 354.413 369.915C345.693 367.902 347.48 339.237 347.561 338.017L347.587 337.622L347.979 337.57L419.816 327.913L428.769 248.044L436.904 245.225C437.707 245.125 456.644 242.801 464.276 248.84C466.099 250.284 467.142 252.103 467.369 254.252C468.055 260.725 469.108 286.457 467.638 311.715C466.796 326.214 465.264 338.179 463.088 347.28C460.41 358.475 456.728 365.316 452.146 367.614C443.607 371.89 425.622 373.229 407.332 373.229ZM348.507 338.477C348.416 340.105 348.128 346.497 348.61 352.989C349.336 362.701 351.418 368.226 354.63 368.967C362.25 370.724 432.143 376.55 451.709 366.74C459.633 362.769 464.804 343.72 466.669 311.65C468.136 286.448 467.087 260.799 466.404 254.346C466.203 252.468 465.287 250.87 463.674 249.594C456.54 243.95 438.167 246.044 437.075 246.177L429.666 248.753L420.696 328.764L348.507 338.477Z" fill="#1B2746"/>
<path d="M452.615 273.732C452.664 273.47 452.489 273.214 452.224 273.169C451.958 273.12 451.705 273.295 451.66 273.56C451.566 274.072 442.441 324.333 442.894 343.678H413.349C413.061 343.678 412.824 343.914 412.824 344.202C412.824 344.493 413.061 344.726 413.349 344.726H449.724C450.012 344.726 450.248 344.493 450.248 344.202C450.248 343.914 450.012 343.678 449.724 343.678H443.866C443.406 324.456 452.522 274.24 452.615 273.732Z" fill="#0E2549"/>
<path d="M295.627 394.328L289.931 418.501H306.106L310.467 402.225L295.627 394.328Z" fill="white"/>
<path d="M306.569 419.106H289.167L295.215 393.425L311.173 401.914L306.569 419.106ZM290.695 417.899H305.643L309.762 402.532L296.038 395.231L290.695 417.899Z" fill="#0E2549"/>
<path d="M289.044 417.799C289.044 417.799 265.67 425.213 264.864 431.324H306.776V417.799H289.044Z" fill="#FE893A"/>
<path d="M352.785 406.678L354.676 418.737H369.983L368.364 405.61L352.785 406.678Z" fill="white"/>
<path d="M370.666 419.342H354.158L352.082 406.121L368.892 404.966L370.666 419.342ZM355.194 418.132H369.3L367.833 406.251L353.481 407.238L355.194 418.132Z" fill="#0E2549"/>
<path d="M353.789 418.032C353.789 418.032 330.415 425.446 329.609 431.557H371.521V418.032H353.789Z" fill="#FE893A"/>
<path d="M328.083 429.236V432.751H372.615V428.731L328.083 429.236Z" fill="#0E2549"/>
<path d="M308.088 428.77V432.515H263.552V428.498L308.088 428.77Z" fill="#0E2549"/>
<path d="M295.371 426.796C295.122 426.796 294.898 426.627 294.833 426.378C294.759 426.081 294.937 425.78 295.235 425.705L299.493 424.627H294.96C294.558 424.627 294.228 424.339 294.173 423.941C294.118 423.543 294.361 423.177 294.749 423.071L301.106 421.317H296.971C296.663 421.317 296.417 421.067 296.417 420.763C296.417 420.456 296.666 420.21 296.971 420.21H303.441C303.842 420.21 304.172 420.498 304.228 420.896C304.283 421.294 304.04 421.66 303.651 421.766L297.294 423.521H302.029C302.434 423.521 302.767 423.812 302.816 424.216C302.867 424.621 302.618 424.983 302.223 425.084L295.507 426.783C295.462 426.793 295.416 426.796 295.371 426.796Z" fill="#0E2549"/>
<path d="M360.64 427.032C360.391 427.032 360.168 426.864 360.103 426.615C360.028 426.317 360.207 426.016 360.504 425.941L364.763 424.864H360.229C359.828 424.864 359.497 424.576 359.442 424.178C359.387 423.779 359.63 423.414 360.019 423.307L366.379 421.553H362.243C361.936 421.553 361.69 421.304 361.69 420.999C361.69 420.692 361.939 420.446 362.243 420.446H368.713C369.115 420.446 369.445 420.734 369.5 421.132C369.555 421.53 369.312 421.896 368.924 422.003L362.567 423.757H367.301C367.706 423.757 368.04 424.048 368.088 424.453C368.137 424.854 367.891 425.22 367.496 425.32L360.78 427.019C360.731 427.026 360.686 427.032 360.64 427.032Z" fill="#0E2549"/>
<path d="M389.402 181.639C389.402 181.639 391.216 200.663 389.69 202.767C388.168 204.87 385.607 213.874 385.607 213.874L394.114 252.048L425.583 249.009L420.959 219.732C420.959 219.732 413.258 205.119 412.39 202.718C411.192 199.394 411.189 181.639 411.189 181.639H389.402V181.639Z" fill="white"/>
<path d="M393.735 252.575L385.108 213.861L385.141 213.741C385.248 213.369 387.741 204.631 389.299 202.482C390.328 201.058 389.613 188.97 388.92 181.684C388.894 181.419 389.091 181.18 389.357 181.154C389.626 181.125 389.862 181.325 389.888 181.591C390.076 183.555 391.672 200.86 390.089 203.048C388.725 204.932 386.42 212.825 386.112 213.887L394.499 251.523L425.026 248.575L420.496 219.887C419.845 218.654 412.785 205.226 411.94 202.883C410.726 199.517 410.71 182.367 410.71 181.639C410.71 181.371 410.927 181.154 411.195 181.154C411.464 181.154 411.681 181.371 411.681 181.639C411.681 181.817 411.697 199.349 412.853 202.553C413.699 204.896 421.315 219.36 421.393 219.505L421.431 219.577L421.444 219.658L426.15 249.446L393.735 252.575Z" fill="#0E2549"/>
<path d="M393.738 145.679C389.814 146.226 380.264 147.43 380.491 154.469C380.75 162.499 382.44 172.784 383.421 178.196C383.81 180.332 385.701 181.859 387.867 181.788L412.131 181.005C414.353 180.934 416.169 179.205 416.351 176.985C416.963 169.512 418.116 153.696 417.157 151.346C413.89 143.355 399.952 144.815 393.738 145.679Z" fill="#0E2549"/>
<path d="M410.421 186.313C411.688 184.911 412.041 179.51 411.989 173.367C411.989 173.189 412.076 173.027 412.222 172.933C413.783 171.933 416.024 169.829 415.858 166.787C415.716 164.149 413.825 164.764 412.355 165.664C412.092 165.823 411.762 165.635 411.746 165.321C411.39 157.923 410.771 151.443 410.771 151.443L381.941 152.372C381.941 152.372 382.21 158.971 382.725 166.366C382.748 166.7 384.529 184.319 385.273 185.895C385.678 186.753 386.426 187.452 387.414 188.008C387.414 188.008 389.312 189.462 399.79 189.122L410.421 186.313Z" fill="white"/>
<path d="M396.769 189.656C389.373 189.656 387.472 188.633 387.155 188.416C386.044 187.788 385.264 187.008 384.836 186.099C384.03 184.39 382.255 166.564 382.242 166.396C381.734 159.078 381.459 152.453 381.455 152.388L381.436 151.9L411.211 150.942L411.254 151.395C411.26 151.459 411.869 157.897 412.225 165.175C413.524 164.408 414.557 164.214 415.295 164.603C415.933 164.939 416.286 165.664 416.344 166.761C416.538 170.35 413.708 172.558 412.484 173.344C412.536 180.969 411.982 185.309 410.781 186.639C410.599 186.84 410.295 186.853 410.094 186.675C409.893 186.497 409.881 186.19 410.059 185.989C410.632 185.355 411.577 182.875 411.503 173.373C411.5 173.027 411.671 172.713 411.959 172.525C413.041 171.833 415.541 169.891 415.373 166.813C415.347 166.308 415.23 165.667 414.841 165.46C414.424 165.24 413.608 165.463 412.607 166.075C412.342 166.237 412.015 166.247 411.739 166.101C411.454 165.949 411.276 165.664 411.26 165.34C410.962 159.146 410.473 153.54 410.331 151.938L382.446 152.838C382.518 154.502 382.78 160.169 383.211 166.331C383.266 167.069 385.043 184.27 385.714 185.685C386.057 186.413 386.711 187.054 387.653 187.584L387.712 187.623C387.721 187.63 389.81 188.96 399.777 188.64C400.033 188.627 400.27 188.84 400.279 189.109C400.289 189.377 400.078 189.601 399.81 189.611C398.705 189.64 397.695 189.656 396.769 189.656Z" fill="#0E2549"/>
<path d="M398.46 168.509C398.042 168.509 397.689 168.189 397.653 167.765L397.605 167.169C397.569 166.722 397.899 166.334 398.346 166.295C398.793 166.256 399.182 166.59 399.221 167.036L399.269 167.632C399.305 168.078 398.974 168.467 398.528 168.506C398.505 168.506 398.482 168.509 398.46 168.509Z" fill="#0E2549"/>
<path d="M386.339 169.376C385.908 169.376 385.549 169.036 385.529 168.6L385.5 167.897C385.481 167.451 385.827 167.075 386.274 167.056C386.711 167.033 387.097 167.383 387.116 167.829L387.145 168.532C387.165 168.978 386.818 169.354 386.371 169.373C386.362 169.376 386.352 169.376 386.339 169.376Z" fill="#0E2549"/>
<path d="M404.003 164.098C403.829 164.098 403.66 164.004 403.573 163.839C402.057 160.984 396.423 162.651 396.368 162.667C396.112 162.745 395.84 162.599 395.762 162.344C395.684 162.088 395.83 161.816 396.086 161.738C396.348 161.657 402.543 159.822 404.431 163.382C404.557 163.619 404.466 163.913 404.23 164.039C404.159 164.081 404.081 164.098 404.003 164.098Z" fill="#0E2549"/>
<path d="M391.928 174.959C391.899 174.959 391.87 174.956 391.841 174.953C391.414 174.875 389.273 174.428 389.011 173.234C388.907 172.752 389.134 171.503 389.684 168.765C390.086 166.755 390.64 164.007 390.504 163.441C390.462 163.263 390.261 163.133 390.099 163.056C389.131 162.593 386.903 162.674 384.688 163.735C384.445 163.852 384.157 163.748 384.04 163.509C383.924 163.266 384.027 162.978 384.267 162.861C386.524 161.78 389.092 161.502 390.517 162.182C391.158 162.489 391.378 162.916 391.449 163.217C391.621 163.939 391.255 165.865 390.636 168.956C390.306 170.606 389.895 172.658 389.96 173.03C390.041 173.396 391.106 173.836 392.013 173.998C392.278 174.046 392.453 174.299 392.404 174.561C392.362 174.794 392.158 174.959 391.928 174.959Z" fill="#0E2549"/>
<path d="M389.004 178.374C388.69 178.768 390.082 181.837 391.507 181.668C395.156 181.231 397.245 176.917 396.374 177.173C396.034 177.273 393.728 177.972 392.187 178.251C390.092 178.629 389.36 177.924 389.004 178.374Z" fill="#0E2549"/>
<path d="M415.722 154.9C412.772 149.916 417.552 148.657 414.537 146.126C412.737 144.614 409.473 144.737 409.473 144.737L409.359 144.902C408.78 143.886 407.815 143.155 406.192 143.385C401.74 144.009 401.16 139.601 396.986 140.219C392.812 140.837 395.095 142.038 390.801 143.164C386.507 144.291 384.321 141.909 383.188 145.307C382.055 148.705 378.667 147.912 377.213 150.226C375.759 152.54 376.291 155.191 378.418 156.016C380.546 156.845 377.343 158.725 379.088 160.573C380.834 162.421 387.993 162.068 389.15 159.256C390.306 156.443 390.911 154.531 393.573 154.333C396.235 154.136 399.499 155.437 401.296 154.884C403.093 154.33 405.509 152.343 406.506 152.822C407.504 153.301 408.572 154.942 409.544 154.79C409.622 154.777 409.715 154.744 409.813 154.693C410.804 155.66 411.739 156.618 411.655 158.324C411.542 160.609 417.154 157.317 415.722 154.9Z" fill="#0E2549"/>
<path d="M369.95 305.944C369.95 305.944 318.576 303.811 317.281 315.572C315.985 327.334 347.477 410.542 347.477 410.542L372.168 407.257C372.168 407.257 354.404 346.244 355.174 341.865C358.218 324.55 429.216 303.523 429.216 303.523L369.95 305.944Z" fill="#0E2549"/>
<path d="M434.611 305.769C434.611 305.769 441.826 343.739 407.329 346.079C372.492 348.442 342.866 339.017 335.282 344.979C333.06 346.726 314.505 409.555 314.505 409.555L287.492 405.607C287.492 405.607 311.675 324.007 315.759 315.472C319.632 307.381 334.44 306.459 365.957 305.766C397.481 305.077 434.611 305.769 434.611 305.769Z" fill="#0E2549"/>
<path d="M437.636 249.63C440.226 268.777 436.123 308.918 436.123 308.918L365.961 306.274C365.961 306.274 378.975 198.611 388.628 197.371C392.702 196.847 397.048 202.359 407.841 197.371C418.637 192.387 435.045 230.483 437.636 249.63Z" fill="#FE893A"/>
<path d="M290.705 270.097C290.705 270.097 300.141 258.479 315.237 263.502C316.947 264.071 319.389 265.304 317.715 270.097H290.705Z" fill="#FE893A"/>
<path d="M318.061 270.583H289.685L290.329 269.79C290.426 269.67 300.154 257.97 315.393 263.039C316.419 263.379 317.682 263.945 318.343 265.285C318.952 266.521 318.893 268.194 318.174 270.256L318.061 270.583ZM291.815 269.612H317.365C317.893 267.961 317.928 266.651 317.468 265.715C316.967 264.696 315.93 264.243 315.082 263.961C302.809 259.88 294.28 267.126 291.815 269.612Z" fill="#0E2549"/>
<path d="M321.464 268.69C327.355 268.185 353.154 268.712 353.154 268.712L350.463 257.967C350.463 257.967 322.928 262.65 320.846 262.052C316.934 260.929 314.36 259.608 309.739 259.427C303.625 259.187 295.313 261.291 295.407 262.951C295.455 263.848 306.297 262.495 308.405 263.34C314.363 265.728 317.268 269.052 321.464 268.69Z" fill="white"/>
<path d="M353.782 269.211L353.147 269.198C352.891 269.191 327.306 268.673 321.51 269.172C318.744 269.411 316.578 268.175 313.835 266.612C312.245 265.705 310.445 264.676 308.23 263.79C307.261 263.401 303.832 263.54 301.076 263.65C296.054 263.854 294.972 263.819 294.927 262.977C294.908 262.65 295.05 262.33 295.351 262.026C297.032 260.32 304.441 258.734 309.765 258.941C313.255 259.077 315.642 259.864 318.171 260.699C319.061 260.993 319.981 261.297 320.988 261.586C322.436 262.003 339.365 259.362 350.388 257.488L350.832 257.414L353.782 269.211ZM305.283 262.563C306.756 262.563 307.967 262.641 308.589 262.89C310.866 263.802 312.698 264.848 314.314 265.77C316.908 267.249 318.958 268.418 321.422 268.207C326.827 267.741 348.439 268.136 352.528 268.217L350.103 258.524C345.761 259.259 322.756 263.11 320.716 262.521C319.69 262.226 318.76 261.919 317.863 261.624C315.295 260.776 313.077 260.045 309.726 259.916C304.405 259.708 297.391 261.34 296.044 262.709C296.038 262.715 296.031 262.721 296.025 262.728C296.886 262.854 299.25 262.757 301.038 262.686C302.504 262.624 303.994 262.563 305.283 262.563Z" fill="#0E2549"/>
<path d="M392.43 209.612C392.43 209.612 386.459 228.36 378.408 234.319C370.358 240.277 327.711 252.109 327.711 252.109L326.409 269.728C326.409 269.728 367.039 270.699 374.519 267.447C383.59 263.501 407.258 251.174 414.039 229.839C420.819 208.498 392.43 209.612 392.43 209.612Z" fill="#FE893A"/>
<path d="M331.642 251.481C331.425 251.481 331.228 251.336 331.173 251.116C331.108 250.857 331.267 250.591 331.526 250.527C331.84 250.446 363.234 242.491 376.508 234.953C386.514 229.27 390.892 209.896 390.934 209.702C390.992 209.44 391.248 209.275 391.514 209.333C391.776 209.392 391.941 209.651 391.883 209.913C391.705 210.725 387.366 229.904 376.987 235.798C363.6 243.4 332.079 251.391 331.762 251.472C331.723 251.475 331.681 251.481 331.642 251.481Z" fill="#0E2549"/>
<path d="M366.706 269.411C366.466 269.411 366.259 269.233 366.223 268.99C366.188 268.725 366.372 268.479 366.641 268.444C387.702 265.589 399.674 252.653 406.005 242.306C412.886 231.063 414.796 220.347 414.816 220.24C414.861 219.975 415.114 219.8 415.376 219.845C415.642 219.891 415.816 220.143 415.771 220.405C415.752 220.515 413.818 231.383 406.85 242.785C402.75 249.488 397.741 255.067 391.951 259.365C384.713 264.744 376.239 268.12 366.767 269.405C366.748 269.408 366.728 269.411 366.706 269.411Z" fill="#0E2549"/>
<path d="M509.903 433H46.1156C45.8468 433 45.6299 432.783 45.6299 432.515C45.6299 432.246 45.8468 432.029 46.1156 432.029H509.903C510.171 432.029 510.388 432.246 510.388 432.515C510.388 432.783 510.171 433 509.903 433Z" fill="#0E2549"/>
</svg>
